<svg id="svg" xmlns="http://www.w3.org/2000/svg" viewBox="23.729999542236328 81.33000183105469 203.80999755859375 119.80999755859375" height="119.80999755859375"><path d="M 75.13,93.61 L 74.43,93.61 L 74.39,94.13 L 72.98,101.15 L 72.28,103.96 L 72.28,108.87 L 71.58,113.08 L 70.18,118.7 L 69.47,123.61 L 67.37,129.92 L 66.67,134.13 L 65.26,137.64 L 64.56,141.85 L 63.16,144.66 L 63.16,147.47 L 61.75,149.57 L 61.05,150.98 L 61.05,152.38 L 61.05,153.08 L 60.35,153.08 L 59.65,151.68" fill="none" stroke="#3794ff" stroke-width="2"></path><path d="M 58.29,132.2 L 58.95,132.03 L 59.65,132.03 L 61.75,132.03 L 62.46,132.03 L 63.86,132.03 L 65.96,132.03 L 66.67,132.03 L 68.07,132.03 L 69.47,132.03 L 70.88,132.03 L 72.28,132.03 L 73.68,131.33 L 75.09,129.92 L 76.49,129.22 L 77.89,128.52 L 78.6,127.12 L 79.3,125.01 L 80.7,124.31 L 81.4,121.5 L 82.11,120.1 L 82.81,117.99 L 84.21,115.19 L 84.21,112.38 L 84.21,109.57 L 84.91,106.06 L 84.91,103.26 L 84.91,99.05 L 84.91,96.24 L 84.91,94.13 L 84.91,92.03 L 84.91,91.33 L 84.91,92.03 L 83.51,95.54 L 82.81,99.05 L 82.11,103.96 L 81.4,109.57 L 80,114.48 L 80,122.91 L 79.3,127.12 L 79.3,132.03 L 79.3,137.64 L 79.3,142.55 L 79.3,145.36 L 80,148.87 L 80.7,150.98 L 81.4,153.08 L 82.11,155.19 L 82.11,155.89 L 82.81,156.59 L 84.21,157.29 L 84.91,157.29 L 85.61,157.29" fill="none" stroke="#3794ff" stroke-width="2"></path><path d="M 109.52,140.63 L 108.77,140.45 L 108.07,140.45 L 107.37,140.45 L 105.96,141.15 L 105.26,142.55 L 103.86,144.66 L 103.86,146.06 L 103.16,148.17 L 102.46,149.57 L 102.46,151.68 L 102.46,152.38 L 102.46,153.08 L 103.16,153.78 L 103.86,154.48 L 104.56,155.19 L 105.26,155.19 L 105.96,155.19 L 106.67,155.89 L 107.37,155.89 L 108.07,155.89 L 108.77,155.89 L 109.47,155.89 L 110.18,155.89 L 110.18,155.19 L 110.88,154.48 L 111.58,153.78 L 112.28,153.78 L 112.28,152.38 L 112.28,151.68 L 112.28,150.27 L 112.28,149.57 L 111.58,149.57" fill="none" stroke="#3794ff" stroke-width="2"></path><path d="M 126.36,100.63 L 126.32,101.15 L 126.32,102.55 L 127.02,104.66 L 127.02,107.47 L 127.02,110.98 L 127.02,115.19 L 127.72,119.4 L 127.72,123.61 L 127.72,127.82 L 128.42,132.03 L 128.42,136.24 L 128.42,139.75 L 129.12,141.85 L 129.12,144.66 L 129.82,148.17 L 129.82,149.57 L 130.53,150.98 L 130.53,151.68 L 131.23,153.08 L 131.23,153.78 L 131.23,154.48 L 131.93,154.48 L 132.63,154.48" fill="none" stroke="#3794ff" stroke-width="2"></path><path d="M 150.21,140.63 L 149.47,141.85 L 149.47,143.96 L 148.77,146.77 L 148.07,148.17 L 148.07,150.27 L 148.07,150.98 L 148.07,151.68 L 148.07,152.38 L 148.77,153.08 L 148.77,153.78 L 149.47,153.78 L 150.18,153.78 L 150.88,153.78 L 151.58,153.78 L 152.28,153.08 L 152.98,152.38 L 154.39,151.68 L 155.79,150.27 L 156.49,148.87 L 157.19,148.87 L 157.89,148.17 L 158.6,148.17 L 159.3,148.17 L 160,148.17 L 160.7,148.17 L 161.4,148.17 L 162.11,148.17 L 162.81,148.87 L 163.51,149.57 L 164.21,150.27 L 164.91,150.27 L 165.61,150.98 L 167.72,151.68 L 167.72,152.38 L 168.42,152.38 L 169.12,152.38 L 169.12,153.08 L 169.12,153.78 L 169.82,153.78 L 169.82,154.48 L 170.53,155.19" fill="none" stroke="#3794ff" stroke-width="2"></path><path d="M 33.73,177.82 L 34.39,177.64 L 36.49,176.94 L 39.3,176.94 L 42.81,175.54 L 48.42,174.84 L 54.74,174.13 L 63.86,173.43 L 73.68,173.43 L 84.91,173.43 L 97.54,173.43 L 110.88,173.43 L 125.61,173.43 L 139.65,173.43 L 152.98,173.43 L 168.42,173.43 L 181.05,173.43 L 188.77,173.43 L 200,173.43 L 207.72,173.43 L 212.63,173.43 L 216.14,173.43 L 217.54,173.43" fill="none" stroke="#3794ff" stroke-width="2"></path><path d="M 37.24,191.14 L 40.7,190.98 L 44.21,190.98 L 49.82,190.98 L 56.14,190.98 L 64.56,190.98 L 73.68,190.98 L 83.51,190.98 L 94.04,190.98 L 103.86,190.98 L 117.19,190.27 L 127.02,190.27 L 137.54,190.27 L 145.96,190.27 L 154.39,190.27 L 160.7,190.27 L 166.32,190.27 L 169.82,190.27 L 171.93,190.27 L 174.04,190.27 L 174.04,190.98" fill="none" stroke="#3794ff" stroke-width="2"></path></svg>