<svg id="svg" xmlns="http://www.w3.org/2000/svg" viewBox="87.58999633789062 75.88999938964844 151.1800079345703 97.72000122070312" height="97.72000122070312"><path d="M 97.59,85.89 L 98.25,87.12 L 98.25,87.82 L 98.95,90.62 L 99.65,92.73 L 101.05,96.24 L 102.46,99.75 L 103.16,105.36 L 104.56,110.27 L 105.26,115.89 L 106.67,122.91 L 107.37,127.12 L 107.37,132.73 L 107.37,137.64 L 108.07,141.15 L 108.07,144.66 L 108.07,146.77 L 108.07,148.87 L 108.07,150.27 L 108.07,150.98" fill="none" stroke="#3794ff" stroke-width="2"></path><path d="M 108.82,138.52 L 109.47,138.34 L 109.47,137.64 L 111.58,136.94 L 112.28,136.24 L 113.68,134.84 L 115.09,134.84 L 116.49,134.13 L 117.89,133.43 L 120,131.33 L 121.4,130.63 L 122.11,129.22 L 123.51,128.52 L 124.91,126.41 L 125.61,125.01 L 126.32,122.91 L 127.02,121.5 L 127.72,118.7 L 128.42,116.59 L 128.42,113.78 L 129.12,110.27 L 129.12,107.47 L 129.12,103.96 L 129.82,101.15 L 129.82,98.34 L 130.53,95.54 L 130.53,93.43 L 130.53,92.03 L 130.53,91.33 L 130.53,90.62 L 130.53,89.92 L 131.23,89.92 L 131.23,92.03 L 131.23,95.54 L 131.93,101.85 L 132.63,108.17 L 132.63,114.48 L 133.33,121.5 L 134.04,128.52 L 134.74,134.84 L 135.44,141.15 L 136.14,145.36 L 136.84,148.87 L 136.84,152.38 L 137.54,155.19 L 138.25,157.99 L 138.95,160.1 L 138.95,161.5 L 138.95,162.91 L 139.65,163.61 L 140.35,163.61 L 141.05,163.61 L 142.46,163.61 L 144.56,162.91 L 145.96,162.91 L 148.07,161.5 L 149.47,161.5 L 150.88,160.1 L 152.98,159.4 L 154.39,156.59 L 156.49,155.19 L 156.49,153.08 L 157.89,151.68 L 158.6,148.87 L 158.6,147.47 L 159.3,146.06 L 159.3,143.96 L 159.3,141.85 L 159.3,140.45 L 158.6,139.05 L 158.6,138.34 L 157.89,136.94 L 157.19,136.94 L 156.49,136.94 L 155.79,136.94 L 155.09,136.94 L 153.68,136.94 L 152.28,138.34 L 151.58,139.05 L 150.18,140.45 L 150.18,141.85 L 148.77,144.66 L 148.77,146.06 L 148.77,147.47 L 148.77,148.87 L 149.47,150.27 L 150.18,150.98 L 150.88,151.68 L 151.58,151.68 L 152.28,151.68 L 152.98,152.38 L 153.68,152.38 L 154.39,152.38 L 155.09,152.38 L 155.79,152.38 L 156.49,152.38 L 157.19,151.68 L 157.89,150.98 L 157.89,150.27 L 159.3,148.87 L 160,147.47 L 160,146.06 L 160.7,145.36 L 160.7,143.96 L 161.4,143.26 L 161.4,142.55 L 161.4,141.85 L 161.4,141.15 L 161.4,140.45" fill="none" stroke="#3794ff" stroke-width="2"></path><path d="M 179.69,95.7 L 179.65,96.24 L 179.65,98.34 L 179.65,101.15 L 179.65,106.77 L 179.65,111.68 L 177.54,126.41 L 177.54,129.22 L 176.84,134.84 L 176.14,140.45 L 174.74,144.66 L 174.04,148.87 L 173.33,152.38 L 173.33,154.48 L 172.63,157.29 L 172.63,157.99 L 172.63,160.1 L 172.63,161.5 L 172.63,162.2 L 172.63,162.91 L 173.33,162.91 L 174.04,162.91 L 175.44,162.2 L 176.84,160.8" fill="none" stroke="#3794ff" stroke-width="2"></path><path d="M 202.85,142.03 L 201.4,141.85 L 200.7,142.55 L 200,143.96 L 197.89,146.06 L 196.49,147.47 L 196.49,149.57 L 195.79,150.27 L 195.09,151.68 L 194.39,153.08 L 194.39,153.78 L 194.39,154.48 L 195.09,154.48 L 195.79,154.48 L 195.79,155.19 L 196.49,155.19 L 197.19,155.19 L 198.6,155.19 L 200,155.19 L 200.7,154.48 L 202.11,154.48 L 203.51,153.78 L 204.21,152.38 L 205.61,151.68 L 207.72,148.17 L 208.42,147.47 L 209.82,146.77 L 209.82,144.66 L 210.53,143.26 L 211.23,143.26 L 211.93,143.96 L 212.63,146.06 L 214.74,146.77 L 214.74,147.47 L 216.14,147.47 L 216.84,148.17 L 218.25,148.87 L 219.65,148.87 L 221.05,148.87 L 221.75,148.87 L 223.16,148.87 L 223.86,148.87 L 225.26,148.87 L 225.96,148.17 L 226.67,148.17 L 228.07,147.47 L 228.77,147.47" fill="none" stroke="#3794ff" stroke-width="2"></path></svg>