<svg id="svg" xmlns="http://www.w3.org/2000/svg" viewBox="32.11000061035156 -1.3000001907348633 155.42999267578125 87.88999938964844" height="87.88999938964844"><path d="M 49.87,24.13 L 49.17,24.84 L 49.12,26.06 L 48.42,28.17 L 48.42,30.27 L 47.72,31.68 L 47.72,34.48 L 47.02,37.29 L 46.32,39.4 L 45.61,42.91 L 44.91,46.41 L 44.91,49.22 L 44.21,52.73 L 44.21,56.94 L 42.81,60.45 L 42.81,63.26 L 42.81,65.36 L 42.81,68.17 L 42.11,70.98 L 42.11,72.38 L 42.11,73.78 L 42.11,75.19 L 42.11,75.89 L 42.11,76.59 L 42.11,75.89 L 42.11,73.78 L 42.81,71.68 L 44.21,68.87 L 44.21,68.17" fill="none" stroke="#3794ff" stroke-width="2"></path><path d="M 48.46,43.77 L 49.12,43.61 L 49.82,43.61 L 50.53,43.61 L 51.23,44.31 L 51.93,44.31 L 52.63,44.31 L 52.63,45.01 L 54.04,45.01 L 54.74,45.01 L 55.44,45.01 L 56.14,45.01 L 56.84,45.01 L 58.25,45.01 L 58.25,44.31 L 59.65,43.61 L 60.35,43.61 L 61.75,42.91 L 63.16,42.2 L 64.56,40.8 L 65.96,39.4 L 66.67,37.99 L 68.07,36.59 L 69.47,34.48 L 70.18,33.08 L 70.88,31.68 L 71.58,29.57 L 71.58,28.87 L 71.58,27.47 L 71.58,26.06 L 71.58,25.36 L 71.58,24.66 L 71.58,23.26 L 71.58,22.55 L 71.58,21.85 L 71.58,21.15" fill="none" stroke="#3794ff" stroke-width="2"></path><path d="M 71.61,19.22 L 70.88,19.05 L 70.88,19.75 L 70.18,21.15 L 68.77,23.96 L 67.37,27.47 L 65.96,30.27 L 65.26,33.78 L 63.86,37.29 L 63.16,40.8 L 62.46,42.91 L 61.75,46.41 L 61.75,48.52 L 61.75,51.33 L 61.75,53.43 L 61.75,55.54 L 61.75,57.64 L 61.75,59.05 L 61.75,61.15 L 61.75,62.55 L 61.75,63.96 L 61.75,65.36 L 61.75,67.47 L 61.75,68.87 L 61.75,70.27 L 61.75,70.98 L 62.46,71.68 L 62.46,72.38 L 63.16,72.38 L 63.16,73.08 L 63.16,73.78 L 63.86,73.78" fill="none" stroke="#3794ff" stroke-width="2"></path><path d="M 90.57,47.28 L 89.82,47.12 L 89.12,47.12 L 88.42,47.12 L 87.02,47.82 L 86.32,49.22 L 84.91,50.62 L 83.51,52.03 L 82.81,52.73 L 81.4,54.84 L 81.4,56.94 L 80.7,59.75 L 80.7,61.85 L 80.7,63.96 L 81.4,67.47 L 82.81,69.57 L 84.21,71.68 L 84.91,72.38 L 85.61,72.38 L 86.32,73.08 L 87.02,73.08 L 87.72,73.08 L 89.12,73.08 L 91.23,73.08 L 92.63,71.68 L 94.04,70.27 L 94.74,69.57 L 96.14,68.17 L 97.54,66.06 L 98.25,64.66 L 99.65,62.55 L 99.65,60.45 L 101.05,57.64 L 101.75,54.84 L 101.75,50.62 L 101.75,47.82 L 101.75,46.41 L 101.75,44.31 L 101.05,42.2 L 101.05,41.5 L 100.35,38.7 L 100.35,37.99 L 99.65,37.29 L 99.65,36.59 L 99.65,35.89" fill="none" stroke="#3794ff" stroke-width="2"></path><path d="M 119.33,8.7 L 119.3,9.22 L 119.3,10.62 L 119.3,12.03 L 118.6,14.84 L 117.89,18.34 L 117.19,20.45 L 116.49,23.96 L 115.79,27.47 L 115.79,30.98 L 115.09,35.89 L 115.09,38.7 L 114.39,43.61 L 114.39,47.12 L 114.39,50.62 L 114.39,53.43 L 114.39,56.24 L 114.39,58.34 L 114.39,60.45 L 114.39,62.55 L 114.39,63.96 L 114.39,66.06 L 114.39,66.77 L 114.39,68.17 L 114.39,68.87 L 114.39,69.57 L 114.39,70.27 L 114.39,70.98 L 114.39,71.68 L 114.39,72.38 L 115.09,72.38" fill="none" stroke="#3794ff" stroke-width="2"></path><path d="M 157.93,48.7 L 157.19,47.82 L 156.49,47.82 L 155.79,47.82 L 154.39,47.82 L 152.98,47.82 L 151.58,47.82 L 149.47,47.82 L 148.07,48.52 L 145.96,49.22 L 144.56,50.62 L 142.46,52.03 L 141.75,53.43 L 141.05,55.54 L 141.05,56.94 L 141.05,59.05 L 141.05,60.45 L 141.05,61.85 L 141.05,63.26 L 141.05,63.96 L 141.75,65.36 L 142.46,66.06 L 143.16,66.06 L 143.86,66.77 L 145.26,66.77 L 146.67,66.77 L 147.37,66.77 L 148.77,66.77 L 150.88,66.06 L 152.28,65.36 L 153.68,64.66 L 154.39,63.96 L 155.79,63.26 L 155.79,61.85 L 156.49,61.15 L 157.19,59.75 L 157.19,57.64 L 157.19,55.54 L 157.19,54.13 L 157.19,52.73 L 157.19,51.33 L 157.19,52.03 L 158.6,53.43 L 159.3,54.13 L 160,55.54 L 160.7,55.54 L 160.7,56.24 L 161.4,56.94 L 162.11,56.94 L 162.81,56.94 L 163.51,56.94 L 163.51,57.64 L 164.21,57.64 L 164.91,57.64 L 167.02,57.64 L 170.53,58.34 L 175.44,59.05 L 177.54,59.75" fill="none" stroke="#3794ff" stroke-width="2"></path></svg>