<svg id="svg" xmlns="http://www.w3.org/2000/svg" viewBox="75.18000030517578 94.66000366210938 212.71002197265625 250.17999267578125" height="250.17999267578125"><path d="M 87.28,109.75 L 87.72,109.57 L 88.42,111.68 L 91.93,116.59 L 94.74,121.5 L 96.84,125.71 L 99.65,129.22 L 102.46,132.03 L 104.56,133.43 L 105.26,134.13 L 105.96,134.13 L 107.37,134.13 L 109.47,131.33 L 111.58,127.82 L 113.68,122.91 L 115.09,118.7 L 117.89,115.19 L 118.6,113.08 L 119.3,112.38 L 119.3,111.68 L 120,111.68" fill="none" stroke="#3794ff" stroke-width="2"></path><path d="M 137.81,128.7" fill="none" stroke="#3794ff" stroke-width="2"></path><path d="M 142.72,126.59 L 142.46,127.12 L 142.46,128.52 L 142.46,127.82 L 142.46,126.41 L 141.75,126.41" fill="none" stroke="#3794ff" stroke-width="2"></path><path d="M 158.16,113.26 L 158.6,113.08 L 160,115.89 L 162.81,120.1 L 164.91,124.31 L 167.02,128.52 L 169.12,132.03 L 171.23,134.13 L 171.93,134.84 L 171.93,135.54 L 173.33,135.54 L 175.44,134.84 L 177.54,131.33 L 178.95,127.82 L 179.65,122.2 L 181.05,116.59 L 181.75,111.68 L 182.46,108.87 L 183.86,106.77 L 183.86,105.36 L 184.56,105.36" fill="none" stroke="#3794ff" stroke-width="2"></path><path d="M 208.68,113.26 L 209.82,113.08 L 210.53,113.08 L 211.93,113.08 L 214.04,113.08 L 216.14,113.78 L 218.25,113.78 L 219.65,113.78 L 220.35,113.78 L 221.05,113.78" fill="none" stroke="#3794ff" stroke-width="2"></path><path d="M 207.98,122.38 L 208.42,122.2 L 209.82,122.2 L 211.23,122.91 L 213.33,122.91 L 215.44,122.91 L 218.25,122.91 L 219.65,122.91 L 220.35,122.91" fill="none" stroke="#3794ff" stroke-width="2"></path><path d="M 242.37,109.75 L 242.81,109.57 L 244.91,113.08 L 246.32,118.7 L 247.72,123.61 L 248.42,127.12 L 248.42,129.92 L 249.12,132.03 L 249.12,131.33 L 249.12,129.22 L 249.12,125.01 L 247.72,119.4 L 247.02,115.89 L 245.61,112.38 L 244.21,108.87 L 243.51,106.77 L 242.81,105.36 L 242.11,105.36 L 242.11,104.66 L 243.51,104.66 L 246.32,104.66 L 248.42,104.66 L 251.93,104.66 L 254.74,104.66 L 256.14,104.66 L 257.54,104.66 L 258.25,104.66" fill="none" stroke="#3794ff" stroke-width="2"></path><path d="M 250.78,120.27 L 250.53,120.8 L 252.63,120.8 L 254.74,120.8 L 256.84,120.8 L 258.25,120.8 L 259.65,120.1" fill="none" stroke="#3794ff" stroke-width="2"></path><path d="M 85.18,179.22 L 86.32,182.55 L 89.12,188.17 L 92.63,193.78 L 95.44,197.99 L 96.84,200.8 L 98.95,202.2 L 99.65,202.2 L 100.35,200.8 L 101.75,196.59 L 103.86,191.68 L 104.56,188.17 L 105.26,183.96 L 105.26,182.55 L 105.96,181.85 L 105.96,181.15" fill="none" stroke="#3794ff" stroke-width="2"></path><path d="M 133.6,188.34 L 132.63,188.17 L 132.63,188.87 L 132.63,188.17 L 132.63,186.77 L 133.33,186.06" fill="none" stroke="#3794ff" stroke-width="2"></path><path d="M 163.77,178.52 L 164.21,180.45 L 165.61,184.66 L 166.32,189.57 L 166.32,193.78 L 167.02,197.29 L 167.02,198.7 L 167.02,197.29 L 167.02,195.19 L 167.02,190.98 L 165.61,186.06 L 164.91,181.15 L 164.21,178.34 L 164.21,174.84 L 164.21,172.73 L 164.21,171.33 L 164.21,170.63 L 166.32,170.63 L 169.82,170.63 L 173.33,170.63 L 175.44,170.63 L 176.84,170.63 L 177.54,170.63" fill="none" stroke="#3794ff" stroke-width="2"></path><path d="M 170.78,184.12 L 169.82,184.66 L 169.82,185.36 L 171.23,186.06 L 174.04,186.06 L 178.25,186.06 L 180.35,186.06 L 180.35,185.36 L 181.05,185.36" fill="none" stroke="#3794ff" stroke-width="2"></path><path d="M 201.66,184.12 L 202.81,183.96 L 206.32,183.96 L 207.72,183.96 L 209.82,183.96 L 211.93,183.96 L 212.63,183.96 L 213.33,183.96 L 213.33,183.26" fill="none" stroke="#3794ff" stroke-width="2"></path><path d="M 209.38,190.45 L 209.12,190.98 L 209.12,191.68 L 210.53,192.38 L 214.04,193.08 L 216.84,193.08 L 220.35,193.08 L 221.75,193.08 L 222.46,193.08" fill="none" stroke="#3794ff" stroke-width="2"></path><path d="M 245.88,174.31 L 247.72,176.94 L 249.82,181.15 L 251.93,186.06 L 254.74,189.57 L 256.14,193.08 L 257.54,195.19 L 258.95,196.59 L 260.35,197.29 L 261.05,197.29 L 261.75,197.29 L 263.86,193.78 L 265.26,188.17 L 266.67,181.85 L 268.07,175.54 L 269.47,172.03 L 270.18,170.63 L 270.88,169.92" fill="none" stroke="#3794ff" stroke-width="2"></path><path d="M 90.78,247.28 L 91.23,247.82 L 91.23,248.52 L 91.23,253.43 L 92.63,259.75 L 92.63,263.96 L 93.33,267.47 L 94.04,268.17 L 94.04,266.77 L 94.04,266.06 L 92.63,261.15 L 91.23,256.24 L 89.82,251.33 L 89.12,248.52 L 89.12,247.12 L 88.42,245.71 L 88.42,245.01 L 88.42,243.61 L 89.82,242.2 L 92.63,240.8 L 96.14,240.1 L 100.35,240.1 L 102.46,239.4 L 103.16,238.7 L 103.86,238.7 L 104.56,238.7 L 105.96,238.7 L 105.96,239.4" fill="none" stroke="#3794ff" stroke-width="2"></path><path d="M 94.3,255.01 L 94.04,255.54 L 94.74,256.24 L 97.54,256.94 L 100.35,256.94 L 103.16,256.94 L 105.26,256.94 L 106.67,256.94 L 107.37,256.94" fill="none" stroke="#3794ff" stroke-width="2"></path><path d="M 132.18,254.31 L 132.89,254.31 L 133.33,252.73 L 134.04,252.03 L 134.74,250.63 L 135.44,249.92 L 136.14,249.22" fill="none" stroke="#3794ff" stroke-width="2"></path><path d="M 163.77,245.89 L 163.51,246.41 L 163.51,247.12 L 163.51,251.33 L 164.21,254.84 L 165.61,258.34 L 165.61,261.15 L 167.02,261.85 L 167.02,262.55 L 167.72,262.55 L 168.42,261.85 L 169.12,259.75 L 170.53,255.54 L 172.63,250.63 L 174.04,247.12 L 176.14,242.91 L 176.14,240.8 L 176.84,240.1 L 177.54,240.1" fill="none" stroke="#3794ff" stroke-width="2"></path><path d="M 215,247.28 L 215.44,247.12 L 216.84,247.12 L 218.95,247.12 L 221.05,247.12 L 221.75,247.12 L 222.46,247.12" fill="none" stroke="#3794ff" stroke-width="2"></path><path d="M 215,257.11 L 215.44,258.34 L 217.54,259.05 L 221.05,259.05 L 223.16,259.05 L 224.56,259.05 L 225.96,259.05" fill="none" stroke="#3794ff" stroke-width="2"></path><path d="M 258.5,238.16 L 258.25,238.7 L 259.65,242.91 L 260.35,249.22 L 261.75,253.43 L 262.46,256.94 L 263.16,259.05 L 263.86,260.45 L 263.86,261.15 L 264.56,261.15 L 265.96,262.55 L 267.37,263.96 L 268.77,265.36 L 269.47,265.36 L 270.18,265.36 L 270.88,266.06 L 272.28,263.26 L 274.39,257.64 L 276.49,250.63 L 277.19,244.31 L 277.89,240.1 L 277.89,237.29 L 277.89,235.89 L 277.89,235.19 L 277.89,234.48 L 277.89,233.08" fill="none" stroke="#3794ff" stroke-width="2"></path><path d="M 87.98,317.47 L 87.72,318.7 L 89.12,323.61 L 89.82,327.12 L 89.82,330.63 L 90.53,332.73 L 90.53,334.13 L 91.23,334.84 L 91.23,333.43 L 90.53,330.63 L 89.82,325.71 L 88.42,320.8 L 86.32,315.19 L 86.32,311.68 L 86.32,310.27 L 86.32,309.57 L 86.32,308.87 L 87.02,307.47 L 90.53,306.77 L 94.04,305.36 L 96.14,305.36 L 97.54,305.36 L 97.54,304.66 L 98.25,304.66" fill="none" stroke="#3794ff" stroke-width="2"></path><path d="M 88.68,318.87 L 88.68,319.57 L 89.82,319.4 L 92.63,319.4 L 94.74,319.4 L 96.14,319.4 L 96.84,319.4 L 97.54,319.4" fill="none" stroke="#3794ff" stroke-width="2"></path><path d="M 128.68,322.38 L 128.42,321.5 L 129.12,321.5 L 129.82,320.8 L 130.53,320.1 L 130.53,318.7 L 131.23,318.7" fill="none" stroke="#3794ff" stroke-width="2"></path><path d="M 152.54,309.75 L 152.98,309.57 L 152.98,310.98 L 155.09,314.48 L 155.79,320.1 L 157.19,323.61 L 157.89,327.12 L 158.6,328.52 L 158.6,327.82 L 158.6,327.12 L 158.6,324.31 L 157.19,320.1 L 155.79,315.19 L 155.09,311.68 L 153.68,308.17 L 153.68,306.06 L 153.68,304.66 L 153.68,303.96 L 155.79,303.96 L 158.6,303.96 L 161.4,303.96 L 164.91,303.26 L 169.12,301.85 L 171.93,301.15 L 173.33,299.75 L 174.04,299.05" fill="none" stroke="#3794ff" stroke-width="2"></path><path d="M 163.06,316.77 L 162.81,317.29 L 163.51,317.29 L 164.21,317.29 L 165.61,317.29 L 168.42,317.29 L 170.53,317.29 L 171.93,316.59 L 172.63,316.59 L 173.33,316.59" fill="none" stroke="#3794ff" stroke-width="2"></path><path d="M 214.3,315.36 L 215.7,315.36 L 218.95,315.19 L 220.35,315.19 L 223.86,315.19 L 225.96,315.19 L 227.37,315.19 L 228.77,314.48" fill="none" stroke="#3794ff" stroke-width="2"></path><path d="M 221.32,323.08 L 221.75,322.91 L 222.46,322.91 L 225.26,322.91 L 227.37,322.91 L 229.47,322.91 L 230.88,322.91 L 232.98,322.91 L 233.68,322.91" fill="none" stroke="#3794ff" stroke-width="2"></path><path d="M 264.81,306.94 L 264.56,308.87 L 264.56,314.48 L 265.26,320.1 L 265.26,325.71 L 265.26,329.22 L 265.26,330.63 L 265.26,329.92 L 265.26,327.82 L 265.26,324.31 L 263.86,318.7 L 262.46,312.38 L 262.46,308.87 L 261.05,303.96 L 261.05,299.75 L 261.05,296.24 L 261.75,292.73 L 262.46,292.73 L 264.56,292.03 L 267.37,292.03 L 269.47,292.03 L 272.28,292.03 L 273.68,292.03 L 274.39,292.03" fill="none" stroke="#3794ff" stroke-width="2"></path><path d="M 263.42,307.64 L 263.16,308.87 L 263.16,309.57 L 263.86,309.57 L 265.96,309.57 L 268.77,309.57 L 272.28,309.57 L 274.39,308.87 L 274.39,308.17" fill="none" stroke="#3794ff" stroke-width="2"></path></svg>